<?xml version="1.0" encoding="UTF-8" standalone="no"?>
<svg
   xmlns:dc="http://purl.org/dc/elements/1.1/"
   xmlns:cc="http://creativecommons.org/ns#"
   xmlns:rdf="http://www.w3.org/1999/02/22-rdf-syntax-ns#"
   xmlns:svg="http://www.w3.org/2000/svg"
   xmlns="http://www.w3.org/2000/svg"
   version="1.1"
   id="svg2"
   viewBox="0 0 20 20"
   height="20"
   width="20">
  <defs
     id="defs4" />
  <metadata
     id="metadata7">
    <rdf:RDF>
      <cc:Work
         rdf:about="">
        <dc:format>image/svg+xml</dc:format>
        <dc:type
           rdf:resource="http://purl.org/dc/dcmitype/StillImage" />
        <dc:title></dc:title>
      </cc:Work>
    </rdf:RDF>
  </metadata>
  <g
     transform="translate(0,-1032.3622)"
     id="layer1">
    <path
       id="path4140"
       d="m 7,1035.3622 -5,7 5,7 11,0 0,-14 -11,0 z m 3.152344,2 a 4,4 0 0 1 4,4 4,4 0 0 1 -0.88086,2.498 l 3.457032,3.457 -0.871094,0.8711 -3.496094,-3.4961 a 4,4 0 0 1 -2.208984,0.67 4,4 0 0 1 -4,-4 4,4 0 0 1 4,-4 z m 0,1.3574 a 2.6428571,2.6428571 0 0 0 -2.642578,2.6426 2.6428571,2.6428571 0 0 0 2.642578,2.6425 2.6428571,2.6428571 0 0 0 2.642578,-2.6425 2.6428571,2.6428571 0 0 0 -2.642578,-2.6426 z"
       style="fill:#3465a4;fill-rule:evenodd;stroke:none;stroke-width:1px;stroke-linecap:butt;stroke-linejoin:miter;stroke-opacity:1" />
  </g>
</svg>
